<svg xmlns="http://www.w3.org/2000/svg" width="124.996" height="57.16" viewBox="0 0 124.996 57.16">
  <g id="Group_42932" data-name="Group 42932" transform="translate(-619.385 -59.897)">
    <path id="Path_168253" data-name="Path 168253" d="M731.213,61.56l5,6.869,5-6.869A8.493,8.493,0,0,0,731.213,61.56Z" transform="translate(-28.996 -0.01)" fill="#3eb6ae"/>
    <g id="Group_42931" data-name="Group 42931" transform="translate(645.842 70.84)">
      <path id="Path_168254" data-name="Path 168254" d="M686.841,88.842a15.474,15.474,0,0,1-1.245,6.184,15.873,15.873,0,0,1-3.4,5.036,16.173,16.173,0,0,1-5.049,3.39,15.991,15.991,0,0,1-12.369,0,15.832,15.832,0,0,1-8.425-8.426,15.462,15.462,0,0,1-1.246-6.184V74.671h7.914V88.842a7.642,7.642,0,0,0,.623,3.072,7.965,7.965,0,0,0,4.233,4.22,7.961,7.961,0,0,0,6.171,0,7.966,7.966,0,0,0,4.233-4.22,7.654,7.654,0,0,0,.623-3.072V74.671h7.941Z" transform="translate(-655.103 -74.671)" fill="#3eb6ae"/>
    </g>
    <path id="Path_168255" data-name="Path 168255" d="M640.555,100.866h-7.9V67.823H619.385V59.9H653.8v7.926H640.555Z" transform="translate(0 0)" fill="#3eb6ae"/>
    <path id="Path_168256" data-name="Path 168256" d="M777.561,88.664a15.937,15.937,0,0,1-1.187,6.172,15.463,15.463,0,0,1-3.231,4.943,15.11,15.11,0,0,1-4.792,3.286,15,15,0,0,1-11.762,0,15.133,15.133,0,0,1-8.049-8.229,15.909,15.909,0,0,1-1.188-6.172,16.158,16.158,0,0,1,1.188-6.241,15.25,15.25,0,0,1,3.244-4.956,15.054,15.054,0,0,1,4.8-3.272,14.625,14.625,0,0,1,5.868-1.188,15.474,15.474,0,0,1,5.895,1.118,14.252,14.252,0,0,1,4.792,3.176,15.066,15.066,0,0,1,3.231,4.943A16.732,16.732,0,0,1,777.561,88.664Zm-7.594,0a8.794,8.794,0,0,0-.593-3.3,7.842,7.842,0,0,0-1.616-2.541,6.991,6.991,0,0,0-2.388-1.63,7.782,7.782,0,0,0-5.826,0,6.85,6.85,0,0,0-2.375,1.63,7.764,7.764,0,0,0-1.587,2.541,8.96,8.96,0,0,0-.58,3.3,8.549,8.549,0,0,0,.58,3.176,7.959,7.959,0,0,0,1.587,2.54,7.432,7.432,0,0,0,2.375,1.7,6.967,6.967,0,0,0,2.913.621,7.4,7.4,0,0,0,2.913-.579,7.249,7.249,0,0,0,2.388-1.63,7.657,7.657,0,0,0,1.616-2.541A8.827,8.827,0,0,0,769.967,88.664Z" transform="translate(-33.18 -3.399)" fill="#3eb6ae"/>
    <path id="Path_168257" data-name="Path 168257" d="M733.073,88.664a15.923,15.923,0,0,1-1.187,6.172,15.452,15.452,0,0,1-3.231,4.943,15.115,15.115,0,0,1-4.791,3.286,15,15,0,0,1-11.763,0,15.133,15.133,0,0,1-8.049-8.229,15.91,15.91,0,0,1-1.187-6.172,16.159,16.159,0,0,1,1.187-6.241,15.263,15.263,0,0,1,3.244-4.956,15.071,15.071,0,0,1,4.8-3.272,14.625,14.625,0,0,1,5.868-1.188,15.48,15.48,0,0,1,5.9,1.118,14.256,14.256,0,0,1,4.791,3.176,15.056,15.056,0,0,1,3.231,4.943A16.717,16.717,0,0,1,733.073,88.664Zm-7.593,0a8.794,8.794,0,0,0-.594-3.3,7.839,7.839,0,0,0-1.616-2.541,6.983,6.983,0,0,0-2.388-1.63,7.782,7.782,0,0,0-5.826,0,6.841,6.841,0,0,0-2.375,1.63,7.765,7.765,0,0,0-1.588,2.541,8.958,8.958,0,0,0-.58,3.3,8.546,8.546,0,0,0,.58,3.176,7.96,7.96,0,0,0,1.588,2.54,7.421,7.421,0,0,0,2.375,1.7,6.967,6.967,0,0,0,2.913.621,7.4,7.4,0,0,0,2.913-.579,7.241,7.241,0,0,0,2.388-1.63,7.654,7.654,0,0,0,1.616-2.541A8.827,8.827,0,0,0,725.48,88.664Z" transform="translate(-21.645 -3.399)" fill="#3eb6ae"/>
    <path id="Path_168258" data-name="Path 168258" d="M725.461,116.747a8.6,8.6,0,0,1-.57,2.734,7.655,7.655,0,0,1-1.616,2.541,7.231,7.231,0,0,1-2.388,1.63,7.385,7.385,0,0,1-2.913.58,6.957,6.957,0,0,1-2.913-.621,7.411,7.411,0,0,1-2.375-1.7,7.959,7.959,0,0,1-1.588-2.54,8.384,8.384,0,0,1-.556-2.624h-7.66a15.772,15.772,0,0,0,1.175,5.62A15.131,15.131,0,0,0,712.1,130.6a15,15,0,0,0,11.763,0,15.128,15.128,0,0,0,4.791-3.286,15.455,15.455,0,0,0,3.231-4.944,15.79,15.79,0,0,0,1.176-5.62Z" transform="translate(-21.649 -14.741)" fill="#3eb6ae"/>
    <path id="Path_168259" data-name="Path 168259" d="M678.732,116.747a8.6,8.6,0,0,1-.57,2.734,7.657,7.657,0,0,1-1.616,2.541,7.231,7.231,0,0,1-2.388,1.63,7.385,7.385,0,0,1-2.913.58,6.957,6.957,0,0,1-2.913-.621,7.409,7.409,0,0,1-2.375-1.7,7.96,7.96,0,0,1-1.588-2.54,8.386,8.386,0,0,1-.556-2.624h-7.66a15.775,15.775,0,0,0,1.175,5.62,15.131,15.131,0,0,0,8.049,8.229,15,15,0,0,0,11.763,0,15.127,15.127,0,0,0,4.791-3.286,15.455,15.455,0,0,0,3.231-4.944,15.79,15.79,0,0,0,1.176-5.62Z" transform="translate(-9.533 -14.741)" fill="#3eb6ae"/>
  </g>
</svg>
